<svg xmlns="http://www.w3.org/2000/svg" viewBox="0 0 800 500" width="800" height="500">
  <defs>
    <linearGradient id="bg" x1="0%" y1="0%" x2="100%" y2="100%">
      <stop offset="0%" style="stop-color:#1a0533"/>
      <stop offset="100%" style="stop-color:#0d1117"/>
    </linearGradient>
    <linearGradient id="accent" x1="0%" y1="0%" x2="100%" y2="0%">
      <stop offset="0%" style="stop-color:#a855f7"/>
      <stop offset="100%" style="stop-color:#ec4899"/>
    </linearGradient>
  </defs>
  <rect width="800" height="500" fill="url(#bg)"/>
  <!-- Film strip top -->
  <rect x="0" y="0" width="800" height="60" fill="#111827"/>
  <rect x="0" y="440" width="800" height="60" fill="#111827"/>
  <!-- Film holes top -->
  <rect x="20" y="10" width="30" height="40" rx="4" fill="#1f2937"/>
  <rect x="70" y="10" width="30" height="40" rx="4" fill="#1f2937"/>
  <rect x="120" y="10" width="30" height="40" rx="4" fill="#1f2937"/>
  <rect x="170" y="10" width="30" height="40" rx="4" fill="#1f2937"/>
  <rect x="220" y="10" width="30" height="40" rx="4" fill="#1f2937"/>
  <rect x="270" y="10" width="30" height="40" rx="4" fill="#1f2937"/>
  <rect x="320" y="10" width="30" height="40" rx="4" fill="#1f2937"/>
  <rect x="370" y="10" width="30" height="40" rx="4" fill="#1f2937"/>
  <rect x="420" y="10" width="30" height="40" rx="4" fill="#1f2937"/>
  <rect x="470" y="10" width="30" height="40" rx="4" fill="#1f2937"/>
  <rect x="520" y="10" width="30" height="40" rx="4" fill="#1f2937"/>
  <rect x="570" y="10" width="30" height="40" rx="4" fill="#1f2937"/>
  <rect x="620" y="10" width="30" height="40" rx="4" fill="#1f2937"/>
  <rect x="670" y="10" width="30" height="40" rx="4" fill="#1f2937"/>
  <rect x="720" y="10" width="30" height="40" rx="4" fill="#1f2937"/>
  <!-- Same bottom -->
  <rect x="20" y="450" width="30" height="40" rx="4" fill="#1f2937"/>
  <rect x="70" y="450" width="30" height="40" rx="4" fill="#1f2937"/>
  <rect x="120" y="450" width="30" height="40" rx="4" fill="#1f2937"/>
  <rect x="170" y="450" width="30" height="40" rx="4" fill="#1f2937"/>
  <rect x="220" y="450" width="30" height="40" rx="4" fill="#1f2937"/>
  <rect x="270" y="450" width="30" height="40" rx="4" fill="#1f2937"/>
  <rect x="320" y="450" width="30" height="40" rx="4" fill="#1f2937"/>
  <rect x="370" y="450" width="30" height="40" rx="4" fill="#1f2937"/>
  <rect x="420" y="450" width="30" height="40" rx="4" fill="#1f2937"/>
  <rect x="470" y="450" width="30" height="40" rx="4" fill="#1f2937"/>
  <rect x="520" y="450" width="30" height="40" rx="4" fill="#1f2937"/>
  <rect x="570" y="450" width="30" height="40" rx="4" fill="#1f2937"/>
  <rect x="620" y="450" width="30" height="40" rx="4" fill="#1f2937"/>
  <rect x="670" y="450" width="30" height="40" rx="4" fill="#1f2937"/>
  <rect x="720" y="450" width="30" height="40" rx="4" fill="#1f2937"/>
  <!-- Play button circle -->
  <circle cx="400" cy="250" r="60" fill="none" stroke="url(#accent)" stroke-width="3" opacity="0.6"/>
  <circle cx="400" cy="250" r="45" fill="url(#accent)" opacity="0.2"/>
  <polygon points="385,225 385,275 430,250" fill="white"/>
  <!-- Title -->
  <text x="400" y="340" text-anchor="middle" fill="white" font-size="22" font-weight="bold" font-family="serif">Clip BDE MMI Montaigne</text>
  <text x="400" y="368" text-anchor="middle" fill="#a855f7" font-size="13" font-family="sans-serif" letter-spacing="3">MOTION DESIGN · PREMIERE PRO · AFTER EFFECTS</text>
</svg>
